<?xml version="1.0" encoding="UTF-8" standalone="no"?>
<svg
   xmlns:dc="http://purl.org/dc/elements/1.1/"
   xmlns:cc="http://creativecommons.org/ns#"
   xmlns:rdf="http://www.w3.org/1999/02/22-rdf-syntax-ns#"
   xmlns:svg="http://www.w3.org/2000/svg"
   xmlns="http://www.w3.org/2000/svg"
   xmlns:sodipodi="http://sodipodi.sourceforge.net/DTD/sodipodi-0.dtd"
   xmlns:inkscape="http://www.inkscape.org/namespaces/inkscape"
   version="1.1"
   x="0px"
   y="0px"
   viewBox="0 0 18 14.4"
   enable-background="new 0 0 100 100"
   xml:space="preserve"
   id="svg60"
   sodipodi:docname="carrot.svg"
   width="18"
   height="14.4"
   inkscape:version="0.92.5 (2060ec1f9f, 2020-04-08)"><metadata
     id="metadata66"><rdf:RDF><cc:Work
         rdf:about=""><dc:format>image/svg+xml</dc:format><dc:type
           rdf:resource="http://purl.org/dc/dcmitype/StillImage" /><dc:title></dc:title></cc:Work></rdf:RDF></metadata><defs
     id="defs64" /><sodipodi:namedview
     pagecolor="#ffffff"
     bordercolor="#666666"
     borderopacity="1"
     objecttolerance="10"
     gridtolerance="10"
     guidetolerance="10"
     inkscape:pageopacity="0"
     inkscape:pageshadow="2"
     inkscape:window-width="1366"
     inkscape:window-height="724"
     id="namedview62"
     showgrid="false"
     fit-margin-top="0"
     fit-margin-left="0"
     fit-margin-right="0"
     fit-margin-bottom="0"
     showborder="true"
     inkscape:zoom="13.504"
     inkscape:cx="10.72264"
     inkscape:cy="18.860932"
     inkscape:window-x="0"
     inkscape:window-y="44"
     inkscape:window-maximized="0"
     inkscape:current-layer="svg60" /><path fill="currentColor"
     d="m 11.825512,2.2744623 c -0.01509,-0.1523841 -0.135685,-0.2728142 -0.287909,-0.2879081 -0.468232,-0.046727 -0.931646,0.069207 -1.318789,0.3198622 3.21e-4,-0.019108 0.0027,-0.038056 0.0027,-0.057325 0,-0.8430103 -0.3744571,-1.6333526 -1.0271879,-2.16838317 -0.1181821,-0.09698633 -0.2888716,-0.09698633 -0.4070536,0 C 8.1344108,0.61589968 7.7599537,1.4062419 7.7599537,2.2490917 c 0,0.037414 0.00385,0.074345 0.0053,0.1115985 C 7.3634979,2.0737456 6.870377,1.9367765 6.3703514,1.9867148 6.2181279,2.0018087 6.0975372,2.1223993 6.0824433,2.2746229 c -0.061018,0.615799 0.1546322,1.219555 0.5915524,1.6563146 0.2125992,0.2125992 0.4645389,0.370764 0.7384771,0.4720858 -0.4521747,0.4168485 -0.7375136,1.0119336 -0.7375136,1.6738171 0,0.672642 0.3633776,2.8416675 0.7619208,5.0513186 -1.606e-4,0.004 -0.00112,0.0077 -0.00112,0.01172 0,0.04496 0.00947,0.08783 0.026173,0.126693 0.091366,0.505003 0.1840171,1.010488 0.27442,1.499274 0.049617,0.2688 0.086549,0.468392 0.1048544,0.572283 0.1573619,0.888132 0.5273231,1.061872 1.1130948,1.061872 0.5999022,0 0.97452,-0.174864 1.1140578,-1.068295 0.02665,-0.170529 0.10919,-0.622061 0.213242,-1.193702 0.460681,-2.5248556 0.952036,-5.2836672 0.952036,-6.0613242 0,-0.6618835 -0.285339,-1.2569685 -0.737514,-1.6738171 0.273939,-0.1014824 0.525718,-0.2594866 0.738477,-0.4720858 0.436278,-0.436599 0.651928,-1.040355 0.590911,-1.6563146 z M 8.9905882,0.76699924 C 9.367454,1.1660241 9.5790897,1.6927049 9.5790897,2.2489311 c 0,0.5517302 -0.2082637,1.0771264 -0.5860929,1.4790416 -8.029e-4,8.029e-4 -0.00161,0.00177 -0.00241,0.00257 C 8.6109927,3.328145 8.4019261,2.8022671 8.4019261,2.2489311 c 0,-0.5562262 0.2117963,-1.082907 0.5886621,-1.48193186 z M 6.7220072,2.6262786 C 7.0433146,2.6595173 7.3410177,2.8006613 7.5724039,3.0320476 7.8037902,3.2635945 7.9449342,3.5632244 7.9783335,3.8824443 7.6568655,3.8490451 7.359323,3.7080616 7.1277762,3.4765148 6.8963899,3.2452891 6.7554065,2.9456591 6.7220072,2.6262786 Z m 3.8686948,3.4505618 c 0,0.7845616 -0.6124268,4.1421516 -0.9414417,5.9460336 -0.1091899,0.598617 -0.188192,1.031041 -0.2159712,1.20976 -0.081892,0.525074 -0.1583254,0.525074 -0.4794722,0.525074 -0.3197016,0 -0.386179,0 -0.4804356,-0.531658 -0.018626,-0.105015 -0.05588,-0.306213 -0.1059785,-0.577101 -0.057164,-0.309103 -0.1332759,-0.721135 -0.2182192,-1.188082 h 0.7866491 c 0.177273,0 0.3211468,-0.143874 0.3211468,-0.321147 0,-0.177273 -0.1438738,-0.321147 -0.3211468,-0.321147 H 8.033089 C 7.985559,10.553627 7.936745,10.279046 7.8879307,10.000933 h 1.047902 c 0.177273,0 0.3211468,-0.1438736 0.3211468,-0.3211466 0,-0.1772731 -0.1438738,-0.3211468 -0.3211468,-0.3211468 H 7.7763322 C 7.726715,9.0696074 7.6787035,8.7828233 7.6331007,8.5047102 h 1.302732 c 0.177273,0 0.3211468,-0.1438738 0.3211468,-0.3211468 0,-0.177273 -0.1438738,-0.3211468 -0.3211468,-0.3211468 H 7.5306548 C 7.4042836,7.0471855 7.3170922,6.3769521 7.3170922,6.0766798 c 0,-0.902583 0.7343022,-1.6368852 1.6368853,-1.6368852 0.9025831,0 1.6367245,0.7343022 1.6367245,1.6370458 z m 0.189156,-2.600165 C 10.548471,3.7080616 10.250768,3.8492056 9.9293003,3.8824443 9.9626996,3.5632244 10.103844,3.2635945 10.33523,3.0320476 c 0.231225,-0.2313863 0.529089,-0.3725303 0.850397,-0.405769 -0.0334,0.3193805 -0.174383,0.6190105 -0.405769,0.8503968 z"
     id="path58"
     inkscape:connector-curvature="0"
     style="stroke-width:0.16057339;image-rendering:auto" /></svg>
